<svg width="24" height="24" viewBox="0 0 24 24" fill="none" xmlns="http://www.w3.org/2000/svg">
<g clip-path="url(#clip0_18_24)">
<path d="M12 12.225C15.2368 12.225 18.1579 13.425 20.3684 15.45C22.5 17.475 23.9211 20.175 24 23.25V24H23.2105H0.789474H0V23.25C0.0789474 20.175 1.5 17.4 3.63158 15.45C5.76316 13.425 8.76316 12.225 12 12.225ZM19.2632 16.5C17.3684 14.775 14.8421 13.725 12 13.725C9.15789 13.725 6.63158 14.775 4.73684 16.5C3 18.075 1.89474 20.175 1.65789 22.5H22.4211C22.1842 20.175 21 18 19.2632 16.5Z" fill="black"/>
<path d="M12 0C15.2368 0 17.9211 2.475 17.9211 5.625C17.9211 8.7 15.2368 11.25 12 11.25C8.76316 11.25 6.07895 8.775 6.07895 5.625C6.07895 2.55 8.68421 0 12 0ZM12 1.5C9.63158 1.5 7.6579 3.375 7.6579 5.625C7.6579 7.875 9.63158 9.75 12 9.75C14.3684 9.75 16.3421 7.875 16.3421 5.625C16.3421 3.375 14.3684 1.5 12 1.5Z" fill="black"/>
</g>
<defs>
<clipPath id="clip0_18_24">
<rect width="24" height="24" fill="white"/>
</clipPath>
</defs>
</svg>
