<svg width="24" height="24" viewBox="0 0 24 24" fill="none" xmlns="http://www.w3.org/2000/svg">
<g clip-path="url(#clip0_12_29)">
<path d="M6.81818 0C2.731 0 0 3.78765 0 8.00338C0 11.9587 1.99008 15.3772 4.4233 18.075C6.85651 20.7727 9.76021 22.7727 11.7528 23.9332C11.8294 23.9771 11.9141 24 12 24C12.0859 24 12.1706 23.9771 12.2472 23.9332C14.2398 22.7727 17.1435 20.7727 19.5767 18.075C22.0099 15.3772 24 11.9587 24 8.00338C24 3.78765 21.269 0 17.1818 0C14.7725 0 13.1719 1.38657 12 3.26099C10.8281 1.38657 9.22751 0 6.81818 0ZM6.81818 1.23129C9.15454 1.23129 10.4348 2.54698 11.5312 4.61734C11.5796 4.70901 11.6482 4.78493 11.7304 4.83766C11.8126 4.89039 11.9055 4.91811 12 4.91811C12.0945 4.91811 12.1874 4.89039 12.2696 4.83766C12.3518 4.78493 12.4204 4.70901 12.4688 4.61734C13.5652 2.54698 14.8455 1.23129 17.1818 1.23129C20.6804 1.23129 22.9091 4.37333 22.9091 8.00338C22.9091 11.4891 21.1259 14.6219 18.8097 17.19C16.5778 19.6645 13.9107 21.5467 12 22.6827C10.0893 21.5467 7.42222 19.6645 5.19034 17.19C2.87411 14.6219 1.09091 11.4891 1.09091 8.00338C1.09091 4.37333 3.31963 1.23129 6.81818 1.23129Z" fill="black"/>
</g>
<defs>
<clipPath id="clip0_12_29">
<rect width="24" height="24" fill="white"/>
</clipPath>
</defs>
</svg>
