<svg width="24" height="24" viewBox="0 0 24 24" fill="none" xmlns="http://www.w3.org/2000/svg">
<g clip-path="url(#clip0_12_27)">
<path d="M24 12.0234C24 11.536 23.8299 11.0686 23.5271 10.7239C23.2243 10.3793 22.8136 10.1857 22.3853 10.1857H5.71934L12.2816 3.22257C12.5004 3.00609 12.664 2.72656 12.7551 2.41332C12.8463 2.10008 12.8616 1.76469 12.7996 1.44237C12.7372 1.12024 12.5999 0.823152 12.4019 0.582267C12.2039 0.341383 11.9526 0.165583 11.6743 0.0733182C11.3961 -0.0189268 11.1011 -0.0242255 10.8204 0.0579712C10.5398 0.140168 10.2837 0.306831 10.0791 0.540476L0.517939 10.6779C0.35511 10.8494 0.225082 11.0573 0.135969 11.2885C0.0468566 11.5197 0.000570879 11.7694 0 12.0219C0.000570879 12.2744 0.0468566 12.5241 0.135969 12.7553C0.225082 12.9865 0.35511 13.1944 0.517939 13.3659L10.0778 23.5063C10.3909 23.8386 10.8071 24.0158 11.2349 23.9989C11.6627 23.982 12.0672 23.7725 12.3593 23.4164C12.6513 23.0601 12.807 22.5864 12.7922 22.0995C12.7774 21.6125 12.5933 21.1522 12.2803 20.8198L5.71934 13.8611H22.3801C22.5926 13.8618 22.8031 13.8149 22.9996 13.7229C23.1961 13.6309 23.3748 13.4956 23.5252 13.3249C23.6757 13.1542 23.7951 12.9513 23.8766 12.728C23.9581 12.5046 24 12.2652 24 12.0234Z" fill="#202020"/>
</g>
<defs>
<clipPath id="clip0_12_27">
<rect width="24" height="24" fill="white"/>
</clipPath>
</defs>
</svg>
