<svg width="24" height="24" viewBox="0 0 24 24" fill="none" xmlns="http://www.w3.org/2000/svg">
<g clip-path="url(#clip0_12_31)">
<path d="M3.15784 24C2.73651 23.997 2.32185 23.923 1.9395 23.7828C1.55714 23.6426 1.21609 23.4395 0.940657 23.187C0.598614 22.8729 0.339485 22.5071 0.181045 22.1119C0.0226057 21.7165 -0.0324428 21.2998 0.0182711 20.887L1.48324 7.55605C1.5074 6.89734 1.84318 6.26972 2.42289 5.79694C3.00258 5.32416 3.7847 5.04056 4.61541 5.00208H6.9707V3.67607C7.03005 2.65987 7.59306 1.70346 8.53924 1.0154C9.48543 0.327352 10.738 -0.0365427 12.0216 0.00308154C13.3056 -0.0376049 14.5575 0.325945 15.504 1.01421C16.4505 1.70248 17.0145 2.6595 17.0725 3.67607V5.00007H19.3564C20.1868 5.03708 20.9685 5.31948 21.5488 5.79145C22.1292 6.26341 22.4663 6.89062 22.491 7.54907L23.9806 20.88C24.0332 21.2939 23.9788 21.7118 23.8202 22.1083C23.6617 22.5048 23.4019 22.8715 23.0582 23.186C22.7845 23.4386 22.4454 23.6419 22.0643 23.7822C21.6831 23.9223 21.2687 23.9963 20.8484 23.999L3.15784 24ZM3.05425 7.66406L2.45742 13.064L1.58682 20.996C1.55534 21.2333 1.58415 21.4731 1.67314 21.701C1.76212 21.9289 1.90964 22.1402 2.10473 22.3219C2.23451 22.4439 2.39424 22.5426 2.5758 22.6116C2.75734 22.6806 2.95655 22.7181 3.15784 22.722H20.8484C21.0498 22.7181 21.2489 22.6806 21.4305 22.6116C21.612 22.5426 21.7718 22.4439 21.9015 22.3219C22.0958 22.1399 22.2421 21.9285 22.3306 21.7007C22.4191 21.4728 22.4484 21.2331 22.417 20.996L20.9273 7.66006C20.9282 7.3159 20.7685 6.98365 20.4785 6.72735C20.1884 6.47107 19.7885 6.30888 19.3564 6.27207H17.0725V8.31304C17.0889 8.48145 17.0189 8.64812 16.8802 8.77639C16.7415 8.90465 16.5453 8.98403 16.3327 8.99706C16.1204 8.98353 15.9234 8.90393 15.7852 8.77571C15.647 8.64751 15.5789 8.48113 15.5953 8.31304V6.27207H8.45785V8.31304C8.47213 8.48204 8.40052 8.64868 8.26056 8.77676C8.12059 8.90482 7.92383 8.984 7.71057 8.99706C7.49869 8.98251 7.30143 8.90271 7.16307 8.7748C7.02469 8.64689 6.95634 8.48109 6.9707 8.31304V6.27207H4.61541C4.18201 6.30727 3.78057 6.46965 3.49079 6.72727C3.20101 6.98488 3.04358 7.31908 3.04933 7.66406H3.05425ZM15.5953 5.00107V3.67506C15.5051 2.97566 15.0894 2.328 14.4287 1.85851C13.7679 1.38903 12.9093 1.13144 12.0216 1.13607C11.135 1.13162 10.2786 1.38948 9.61947 1.85912C8.96034 2.32876 8.54563 2.97635 8.45785 3.67506V5.00007L15.5953 5.00107Z" fill="#181817"/>
</g>
<defs>
<clipPath id="clip0_12_31">
<rect width="24" height="24" fill="white"/>
</clipPath>
</defs>
</svg>
