<svg width="24" height="24" viewBox="0 0 24 24" fill="none" xmlns="http://www.w3.org/2000/svg">
<g clip-path="url(#clip0_12_33)">
<path d="M2.5946 18.6667C2.08143 18.6667 1.57979 18.8231 1.15312 19.1161C0.726437 19.4091 0.393882 19.8256 0.197503 20.3128C0.00112419 20.8001 -0.0502574 21.3363 0.0498556 21.8536C0.149969 22.3709 0.39708 22.846 0.75994 23.219C1.1228 23.5919 1.58511 23.8459 2.08842 23.9488C2.59172 24.0517 3.1134 23.9989 3.5875 23.797C4.0616 23.5952 4.46682 23.2534 4.75192 22.8149C5.03702 22.3763 5.18919 21.8608 5.18919 21.3333C5.1885 20.6263 4.91492 19.9484 4.42849 19.4485C3.94206 18.9486 3.28251 18.6674 2.5946 18.6667ZM2.5946 22.6667C2.33801 22.6667 2.0872 22.5885 1.87386 22.442C1.66052 22.2955 1.49424 22.0872 1.39605 21.8436C1.29786 21.5999 1.27217 21.3319 1.32223 21.0732C1.37228 20.8146 1.49584 20.577 1.67727 20.3905C1.8587 20.2041 2.08985 20.0771 2.34151 20.0256C2.59316 19.9742 2.854 20.0006 3.09105 20.1015C3.3281 20.2024 3.53071 20.3733 3.67326 20.5926C3.81581 20.8118 3.89189 21.0696 3.89189 21.3333C3.89145 21.6868 3.75462 22.0257 3.51143 22.2756C3.26824 22.5256 2.93852 22.6662 2.5946 22.6667Z" fill="black"/>
<path d="M2.5946 9.33333C2.08143 9.33333 1.57979 9.48973 1.15312 9.78274C0.726437 10.0758 0.393882 10.4922 0.197503 10.9795C0.00112419 11.4668 -0.0502574 12.003 0.0498556 12.5202C0.149969 13.0375 0.39708 13.5127 0.75994 13.8856C1.1228 14.2586 1.58511 14.5125 2.08842 14.6154C2.59172 14.7183 3.1134 14.6655 3.5875 14.4637C4.0616 14.2618 4.46682 13.92 4.75192 13.4815C5.03702 13.043 5.18919 12.5274 5.18919 12C5.1885 11.293 4.91492 10.6151 4.42849 10.1152C3.94206 9.61521 3.28251 9.33403 2.5946 9.33333ZM2.5946 13.3333C2.33801 13.3333 2.0872 13.2551 1.87386 13.1086C1.66052 12.9621 1.49424 12.7539 1.39605 12.5102C1.29786 12.2666 1.27217 11.9985 1.32223 11.7399C1.37228 11.4812 1.49584 11.2437 1.67727 11.0572C1.8587 10.8707 2.08985 10.7437 2.34151 10.6923C2.59316 10.6408 2.854 10.6672 3.09105 10.7682C3.3281 10.8691 3.53071 11.04 3.67326 11.2592C3.81581 11.4785 3.89189 11.7363 3.89189 12C3.89145 12.3535 3.75462 12.6923 3.51143 12.9423C3.26824 13.1922 2.93852 13.3329 2.5946 13.3333Z" fill="black"/>
<path d="M2.5946 0C2.08143 0 1.57979 0.156397 1.15312 0.449414C0.726437 0.742431 0.393882 1.15891 0.197503 1.64618C0.00112419 2.13345 -0.0502574 2.66962 0.0498556 3.18691C0.149969 3.70419 0.39708 4.17934 0.75994 4.55228C1.1228 4.92522 1.58511 5.1792 2.08842 5.28209C2.59172 5.38499 3.1134 5.33218 3.5875 5.13035C4.0616 4.92851 4.46682 4.58672 4.75192 4.14819C5.03702 3.70966 5.18919 3.19408 5.18919 2.66667C5.1885 1.95964 4.91492 1.28177 4.42849 0.781828C3.94206 0.281884 3.28251 0.000705969 2.5946 0ZM2.5946 4C2.33801 4 2.0872 3.9218 1.87386 3.77529C1.66052 3.62878 1.49424 3.42055 1.39605 3.17691C1.29786 2.93328 1.27217 2.66519 1.32223 2.40655C1.37228 2.1479 1.49584 1.91033 1.67727 1.72386C1.8587 1.53739 2.08985 1.4104 2.34151 1.35895C2.59316 1.30751 2.854 1.33391 3.09105 1.43483C3.3281 1.53574 3.53071 1.70664 3.67326 1.92591C3.81581 2.14517 3.89189 2.40296 3.89189 2.66667C3.89145 3.02015 3.75462 3.35902 3.51143 3.60897C3.26824 3.85892 2.93852 3.99954 2.5946 4Z" fill="black"/>
<path d="M24 1.99999C24 2.08756 23.9833 2.17427 23.9507 2.25518C23.9181 2.33608 23.8704 2.4096 23.8101 2.47151C23.7499 2.53343 23.6783 2.58253 23.5996 2.61602C23.5209 2.6495 23.4365 2.66671 23.3513 2.66666H9.07663C8.90459 2.66666 8.73961 2.59642 8.61796 2.4714C8.49632 2.34638 8.42798 2.17681 8.42798 1.99999C8.42798 1.82318 8.49632 1.65361 8.61796 1.52859C8.73961 1.40357 8.90459 1.33333 9.07663 1.33333H23.3513C23.4365 1.33328 23.5209 1.35049 23.5996 1.38397C23.6783 1.41746 23.7499 1.46656 23.8101 1.52848C23.8704 1.59039 23.9181 1.66391 23.9507 1.74481C23.9833 1.82572 24 1.91243 24 1.99999Z" fill="black"/>
<path d="M24 12C24.0001 12.0876 23.9833 12.1743 23.9507 12.2552C23.9182 12.3361 23.8704 12.4096 23.8101 12.4715C23.7499 12.5334 23.6784 12.5825 23.5997 12.616C23.5209 12.6495 23.4366 12.6667 23.3514 12.6667H9.07541C8.90337 12.6667 8.73839 12.5964 8.61674 12.4714C8.4951 12.3464 8.42676 12.1768 8.42676 12C8.42676 11.8232 8.4951 11.6536 8.61674 11.5286C8.73839 11.4036 8.90337 11.3333 9.07541 11.3333H23.3514C23.4366 11.3333 23.5209 11.3505 23.5997 11.384C23.6784 11.4175 23.7499 11.4666 23.8101 11.5285C23.8704 11.5904 23.9182 11.6639 23.9507 11.7448C23.9833 11.8257 24.0001 11.9124 24 12Z" fill="black"/>
<path d="M24 22C24 22.0876 23.9833 22.1743 23.9507 22.2552C23.9181 22.3361 23.8704 22.4096 23.8101 22.4715C23.7499 22.5334 23.6783 22.5825 23.5996 22.616C23.5209 22.6495 23.4365 22.6667 23.3513 22.6667H9.07663C8.90459 22.6667 8.73961 22.5964 8.61796 22.4714C8.49632 22.3464 8.42798 22.1768 8.42798 22C8.42798 21.8232 8.49632 21.6536 8.61796 21.5286C8.73961 21.4036 8.90459 21.3333 9.07663 21.3333H23.3513C23.4365 21.3333 23.5209 21.3505 23.5996 21.384C23.6783 21.4175 23.7499 21.4666 23.8101 21.5285C23.8704 21.5904 23.9181 21.6639 23.9507 21.7448C23.9833 21.8257 24 21.9124 24 22Z" fill="black"/>
</g>
<defs>
<clipPath id="clip0_12_33">
<rect width="24" height="24" fill="white"/>
</clipPath>
</defs>
</svg>
