<svg width="24" height="24" viewBox="0 0 24 24" fill="none" xmlns="http://www.w3.org/2000/svg">
<path d="M9.5625 14.6329C9.65845 14.6329 9.75439 14.6005 9.82764 14.5356L11.1533 13.3615C11.2998 13.2317 11.2998 13.0216 11.1533 12.8918L9.82764 11.7176C9.68115 11.5879 9.44385 11.5879 9.29736 11.7176L7.97168 12.8918C7.8252 13.0216 7.8252 13.2317 7.97168 13.3615L9.29736 14.5356C9.37061 14.6005 9.46655 14.6329 9.5625 14.6329ZM9.5625 12.4221L10.3579 13.1266L9.5625 13.8311L8.76709 13.1266L9.5625 12.4221Z" fill="black"/>
<path d="M18.1875 4.49104C16.5548 4.49104 15.0278 5.10316 13.9469 6.1252L12.375 3.89767V2.33214C12.375 2.14855 12.2073 2 12 2C11.7927 2 11.625 2.14855 11.625 2.33214V3.89767L10.0531 6.1252C8.97217 5.10316 7.44518 4.49104 5.8125 4.49104C2.60742 4.49104 0 6.80044 0 9.63919C0 11.6534 1.3374 13.4932 3.40723 14.3258C3.45667 14.3459 3.50977 14.3556 3.5625 14.3556C3.62878 14.3556 3.6947 14.3401 3.7533 14.3096C5.30347 13.498 8.31665 11.5785 11.0801 7.83837C11.15 7.74334 11.1606 7.62333 11.1079 7.51986C10.9537 7.21701 10.7658 6.93383 10.5539 6.66867L12 4.61948L13.4461 6.66867C13.2342 6.93383 13.0463 7.21701 12.8921 7.51986C12.8394 7.62333 12.85 7.74334 12.9199 7.83837C15.6833 11.5785 18.6965 13.498 20.2467 14.3096C20.3053 14.3401 20.3712 14.3556 20.4375 14.3556C20.4902 14.3556 20.5433 14.3459 20.5928 14.3258C22.6626 13.4932 24 11.6534 24 9.63919C24 6.80044 21.3926 4.49104 18.1875 4.49104ZM3.54236 13.6469C1.83984 12.8905 0.75 11.3359 0.75 9.63919C0.75 7.16664 3.02087 5.15532 5.8125 5.15532C7.72961 5.15532 9.4834 6.12059 10.3367 7.62981C7.78784 11.0239 5.05627 12.8292 3.54236 13.6469ZM20.4576 13.6469C18.9437 12.8292 16.2122 11.0239 13.6633 7.62981C14.5166 6.12059 16.2704 5.15532 18.1875 5.15532C20.9791 5.15532 23.25 7.16664 23.25 9.63919C23.25 11.3359 22.1602 12.8905 20.4576 13.6469Z" fill="black"/>
<path d="M21.2022 7.37422C21.0326 7.47931 20.9912 7.68658 21.1099 7.83675C21.3966 8.20003 21.5903 8.60417 21.6852 9.03784C21.7196 9.19677 21.8767 9.30705 22.0529 9.30705C22.0763 9.30705 22.1005 9.3051 22.1246 9.30089C22.3279 9.26618 22.4608 9.092 22.4213 8.91199C22.3067 8.38588 22.0719 7.89611 21.7244 7.45596C21.6057 7.30546 21.3721 7.26946 21.2022 7.37422Z" fill="black"/>
<path d="M22.1239 9.97749C21.921 9.94213 21.724 10.0602 21.6845 10.2402C21.6398 10.4446 21.5709 10.6466 21.4805 10.8406C21.4325 10.9434 21.3783 11.044 21.3186 11.1416C21.2197 11.3028 21.2875 11.5045 21.4695 11.5918C21.5263 11.619 21.5874 11.632 21.6478 11.632C21.7811 11.632 21.91 11.5691 21.9778 11.4582C22.0499 11.3404 22.1151 11.2191 22.1733 11.0946C22.2832 10.8594 22.3663 10.6145 22.4205 10.3667C22.4601 10.1867 22.3272 10.0122 22.1239 9.97749Z" fill="black"/>
<path d="M14.0958 10.7209L13.6707 10.635L13.4469 10.3035C13.3114 10.1024 12.9386 10.1024 12.8031 10.3035L12.5794 10.635L12.1542 10.7209C12.0257 10.7469 11.9217 10.8309 11.881 10.9421C11.8404 11.053 11.8686 11.1753 11.9553 11.2632L12.2425 11.5539L12.2033 11.9385C12.1916 12.055 12.2498 12.1685 12.3563 12.2369C12.4629 12.306 12.6024 12.32 12.7244 12.2739L13.125 12.1221L13.5257 12.2739C13.5733 12.2918 13.6234 12.3005 13.6732 12.3005C13.7512 12.3005 13.8285 12.2791 13.8937 12.2369C14.0003 12.1685 14.0585 12.055 14.0468 11.9385L14.0076 11.5539L14.2947 11.2632C14.3815 11.1753 14.4097 11.053 14.369 10.9421C14.3284 10.8309 14.2244 10.7469 14.0958 10.7209ZM13.2448 11.4462C13.206 11.4345 13.1657 11.4287 13.125 11.4287C13.0844 11.4287 13.0441 11.4345 13.0053 11.4462C13.006 11.3735 12.98 11.3025 12.9313 11.2441C13.0097 11.2224 13.0774 11.1786 13.125 11.1195C13.1726 11.1786 13.2404 11.2224 13.3187 11.2441C13.27 11.3025 13.244 11.3735 13.2448 11.4462Z" fill="black"/>
<path d="M22.7933 19.0114C22.173 19.0114 21.6683 18.5644 21.6683 18.015C21.6683 17.8314 21.5006 17.6828 21.2933 17.6828C21.0861 17.6828 20.9183 17.8314 20.9183 18.015C20.9183 18.5644 20.4137 19.0114 19.7933 19.0114C19.5861 19.0114 19.4183 19.16 19.4183 19.3435C19.4183 19.5271 19.5861 19.6757 19.7933 19.6757C20.4137 19.6757 20.9183 20.1226 20.9183 20.6721C20.9183 20.8557 21.0861 21.0042 21.2933 21.0042C21.5006 21.0042 21.6683 20.8557 21.6683 20.6721C21.6683 20.1226 22.173 19.6757 22.7933 19.6757C23.0006 19.6757 23.1683 19.5271 23.1683 19.3435C23.1683 19.16 23.0006 19.0114 22.7933 19.0114ZM21.2933 19.6767C21.1864 19.5505 21.0597 19.4383 20.9172 19.3435C21.0597 19.2488 21.1864 19.1366 21.2933 19.0104C21.4003 19.1366 21.527 19.2488 21.6694 19.3435C21.527 19.4383 21.4003 19.5505 21.2933 19.6767Z" fill="black"/>
<path d="M16.125 17.6105C16.125 17.0611 15.6204 16.6141 15 16.6141C14.3796 16.6141 13.875 17.0611 13.875 17.6105C13.875 18.16 14.3796 18.6069 15 18.6069C15.6204 18.6069 16.125 18.16 16.125 17.6105ZM15 17.9427C14.7931 17.9427 14.625 17.7938 14.625 17.6105C14.625 17.4273 14.7931 17.2784 15 17.2784C15.2069 17.2784 15.375 17.4273 15.375 17.6105C15.375 17.7938 15.2069 17.9427 15 17.9427Z" fill="black"/>
<path d="M12.8467 14.2204C12.7002 14.3501 12.7002 14.5603 12.8467 14.69L14.1724 15.8642C14.2456 15.9291 14.3416 15.9615 14.4375 15.9615C14.5334 15.9615 14.6294 15.9291 14.7026 15.8642L16.0283 14.69C16.1748 14.5603 16.1748 14.3501 16.0283 14.2204L14.7026 13.0462C14.5562 12.9165 14.3188 12.9165 14.1724 13.0462L12.8467 14.2204ZM15.2329 14.4552L14.4375 15.1597L13.6421 14.4552L14.4375 13.7507L15.2329 14.4552Z" fill="black"/>
<path d="M8.64441 19.6199C8.34814 19.6659 8.05005 19.6056 7.80469 19.4525C7.55896 19.2994 7.39563 19.0704 7.34436 18.808C7.3092 18.6274 7.11401 18.507 6.91077 18.5375C6.72839 18.5654 6.59985 18.7059 6.59985 18.8641C6.59985 18.883 6.60168 18.9021 6.60535 18.9216C6.65662 19.1836 6.5896 19.4477 6.41638 19.6653C6.24316 19.8829 5.98462 20.0276 5.68835 20.073C5.50598 20.1009 5.37744 20.2414 5.37744 20.3996C5.37744 20.4184 5.37927 20.4376 5.38293 20.457C5.41809 20.6377 5.61328 20.7584 5.81653 20.7276C6.11206 20.6818 6.41089 20.7415 6.65625 20.8949C6.90198 21.0483 7.06531 21.2773 7.11658 21.5394C7.14807 21.7013 7.30664 21.8151 7.48572 21.8151C7.50696 21.8151 7.5282 21.8135 7.5498 21.8103C7.73254 21.7824 7.86108 21.6419 7.86108 21.4833C7.86108 21.4645 7.85925 21.4454 7.85559 21.4265C7.75012 20.8849 8.16138 20.3682 8.77258 20.2744C8.95496 20.2465 9.0835 20.1061 9.0835 19.9478C9.0835 19.929 9.08167 19.9099 9.078 19.8904C9.04285 19.7097 8.84766 19.59 8.64441 19.6199ZM7.29529 20.5012C7.23083 20.4476 7.16199 20.398 7.08875 20.3523C7.0155 20.3065 6.9397 20.266 6.86169 20.2303C6.92175 20.1736 6.97778 20.1129 7.02905 20.048C7.08105 19.9832 7.1272 19.9157 7.16711 19.8463C7.29675 19.954 7.44287 20.0451 7.60144 20.1168C7.47949 20.2316 7.37622 20.361 7.29529 20.5012Z" fill="black"/>
<path d="M5.72681 15.9025L6.21167 15.473C6.35815 15.3433 6.35815 15.1331 6.21167 15.0034C6.06519 14.8736 5.82788 14.8736 5.6814 15.0034L5.19653 15.4328C4.95813 15.644 4.82153 15.9362 4.82153 16.2346C4.82153 16.3601 4.76624 16.4779 4.66626 16.5667L4.1814 16.9962C4.03491 17.1259 4.03491 17.3361 4.1814 17.4659C4.25464 17.5307 4.35059 17.5632 4.44653 17.5632C4.54248 17.5632 4.63843 17.5307 4.71167 17.4659L5.19653 17.0364C5.43823 16.8223 5.57153 16.5376 5.57153 16.2346C5.57153 16.111 5.6283 15.99 5.72681 15.9025Z" fill="black"/>
<path d="M10.3367 15.6676C10.1902 15.5379 9.95288 15.5379 9.8064 15.6676L9.32153 16.0971C9.08313 16.3082 8.94653 16.6005 8.94653 16.8989C8.94653 17.0244 8.89124 17.1421 8.79126 17.231L8.3064 17.6605C8.15991 17.7902 8.15991 18.0004 8.3064 18.1301C8.37964 18.195 8.47559 18.2274 8.57153 18.2274C8.66748 18.2274 8.76343 18.195 8.83667 18.1301L9.32153 17.7007C9.56323 17.4866 9.69653 17.2018 9.69653 16.8989C9.69653 16.7753 9.7533 16.6543 9.85181 16.5667L10.3367 16.1373C10.4832 16.0076 10.4832 15.7974 10.3367 15.6676Z" fill="black"/>
<path d="M19.7117 17.1337C19.8582 17.004 19.8582 16.7938 19.7117 16.6641L19.2272 16.2349C19.1268 16.1457 19.0715 16.0277 19.0715 15.9025C19.0715 15.5992 18.9382 15.3144 18.6965 15.1007L18.2117 14.6712C18.0652 14.5415 17.8279 14.5415 17.6814 14.6712C17.5349 14.801 17.5349 15.0111 17.6814 15.1409L18.1666 15.5707C18.2666 15.6589 18.3215 15.7769 18.3215 15.9025C18.3215 16.2048 18.4545 16.4895 18.6965 16.7043L19.1814 17.1337C19.2546 17.1986 19.3506 17.231 19.4465 17.231C19.5425 17.231 19.6384 17.1986 19.7117 17.1337Z" fill="black"/>
<path d="M12.8969 19.9692C12.6486 19.8194 12.4812 19.5926 12.4252 19.3309C12.3695 19.0695 12.4318 18.8045 12.6014 18.5846C12.6794 18.4834 12.6881 18.3526 12.6241 18.244C12.56 18.1353 12.434 18.0666 12.2956 18.0653L10.9435 18.0523C10.8311 18.0539 10.7003 18.1055 10.6297 18.1973C10.0474 18.954 10.2682 19.989 11.1222 20.5051C11.1834 20.542 11.2555 20.5621 11.3295 20.5628L12.6816 20.5758C12.683 20.5758 12.6841 20.5758 12.6856 20.5758C12.8493 20.5758 12.9943 20.4817 13.0434 20.3432C13.0928 20.2037 13.0335 20.0516 12.8969 19.9692ZM11.4599 19.8998C11.0677 19.6115 10.9461 19.124 11.1555 18.7185L11.7162 18.724C11.6463 18.9595 11.6357 19.208 11.6884 19.4545C11.7221 19.6128 11.7807 19.7639 11.8612 19.9037L11.4599 19.8998Z" fill="black"/>
<path d="M18.75 20.6714C18.1296 20.6714 17.625 20.2245 17.625 19.675C17.625 19.5524 17.5488 19.4399 17.4269 19.3821C17.3053 19.3244 17.157 19.3309 17.042 19.3987L15.917 20.063C15.8126 20.1246 15.75 20.2284 15.75 20.3393C15.75 21.255 16.5912 22 17.625 22C17.699 22 17.7715 21.9805 17.833 21.9442L18.958 21.2799C19.0953 21.1988 19.1569 21.0474 19.1089 20.9073C19.0609 20.7671 18.9152 20.6714 18.75 20.6714ZM17.5188 21.3312C17.0112 21.289 16.6007 20.9468 16.5161 20.5076L16.9834 20.2316C17.139 20.6183 17.4521 20.939 17.8539 21.1337L17.5188 21.3312Z" fill="black"/>
<path d="M23.625 16.6141C22.8318 16.6141 21.6526 15.725 21.2651 15.3829C21.1187 15.2531 20.8813 15.2531 20.7349 15.3829C20.5884 15.5126 20.5884 15.7228 20.7349 15.8525C20.8997 15.9985 22.3806 17.2784 23.625 17.2784C23.8323 17.2784 24 17.1298 24 16.9462C24 16.7627 23.8323 16.6141 23.625 16.6141Z" fill="black"/>
<path d="M3.68701 15.8019C3.802 15.6495 3.75549 15.4432 3.58301 15.3417C3.41125 15.2388 3.17798 15.281 3.06299 15.4331C2.6759 15.9466 1.43774 17.2784 0.375 17.2784C0.167725 17.2784 0 17.4269 0 17.6105C0 17.7941 0.167725 17.9427 0.375 17.9427C2.05627 17.9427 3.62109 15.8892 3.68701 15.8019Z" fill="black"/>
<path d="M3.59585 20.3529L3.17068 20.267L2.94692 19.9355C2.81143 19.7344 2.43862 19.7344 2.30312 19.9355L2.07937 20.267L1.6542 20.3529C1.52566 20.3789 1.42165 20.4629 1.38101 20.5741C1.34036 20.6851 1.36855 20.8074 1.45535 20.8953L1.74246 21.1859L1.70327 21.5706C1.69155 21.687 1.74978 21.8005 1.85635 21.869C1.96291 21.938 2.10244 21.9517 2.22439 21.9059L2.62502 21.7541L3.02566 21.9059C3.07327 21.9238 3.12344 21.9325 3.17324 21.9325C3.25124 21.9325 3.32851 21.9111 3.3937 21.869C3.50027 21.8005 3.5585 21.687 3.54678 21.5706L3.50759 21.1859L3.7947 20.8953C3.88149 20.8074 3.90969 20.6851 3.86904 20.5741C3.82839 20.4629 3.72439 20.3789 3.59585 20.3529ZM2.74477 21.0782C2.70596 21.0665 2.66567 21.0607 2.62502 21.0607C2.58437 21.0607 2.54409 21.0665 2.50527 21.0782C2.50601 21.0055 2.48 20.9345 2.4313 20.8761C2.50967 20.8544 2.57742 20.8106 2.62502 20.7516C2.67263 20.8106 2.74038 20.8544 2.81875 20.8761C2.77004 20.9345 2.74404 21.0055 2.74477 21.0782Z" fill="black"/>
<path d="M2.27564 7.45596C1.92811 7.89611 1.69337 8.38588 1.57874 8.91199C1.53919 9.092 1.67213 9.26618 1.87537 9.30089C1.89954 9.3051 1.92371 9.30705 1.94715 9.30705C2.1233 9.30705 2.2804 9.19677 2.31483 9.03784C2.40967 8.60417 2.6034 8.20003 2.89014 7.83675C3.0088 7.68658 2.96741 7.47931 2.79786 7.37422C2.62794 7.26946 2.39429 7.30546 2.27564 7.45596Z" fill="black"/>
<path d="M2.51954 10.8409C2.42908 10.6466 2.36024 10.4446 2.31556 10.2402C2.27637 10.0602 2.07972 9.94213 1.8761 9.97749C1.67286 10.0122 1.53992 10.1867 1.57947 10.3667C1.63367 10.6145 1.7168 10.8594 1.82667 11.0949C1.88489 11.2191 1.95008 11.3404 2.02222 11.4582C2.08997 11.5691 2.21888 11.632 2.35218 11.632C2.4126 11.632 2.47376 11.619 2.53052 11.5918C2.71253 11.5045 2.78028 11.3028 2.6814 11.1416C2.62171 11.044 2.56751 10.9434 2.51954 10.8409Z" fill="black"/>
</svg>
