<svg width="24" height="24" viewBox="0 0 24 24" fill="none" xmlns="http://www.w3.org/2000/svg">
<g clip-path="url(#clip0_12_35)">
<path d="M12 0C11.6944 0 11.4623 0.119259 11.2032 0.261836C10.9441 0.404427 10.6717 0.587901 10.4072 0.769346C10.1426 0.950791 9.88527 1.13022 9.66449 1.27201C9.44372 1.41377 9.24334 1.51505 9.19335 1.52819C9.14334 1.54179 8.92127 1.5572 8.65917 1.54516C8.39707 1.53155 8.08113 1.50056 7.76133 1.47566C7.44152 1.45103 7.12113 1.43165 6.82551 1.43767C6.52989 1.44315 6.26745 1.45711 6.00283 1.609C5.73821 1.76171 5.59431 1.98157 5.44117 2.2345C5.28803 2.48737 5.14719 2.77831 5.00882 3.06769C4.87045 3.35707 4.73314 3.64748 4.61283 3.88067C4.49253 4.11384 4.37143 4.29826 4.33484 4.33485C4.29825 4.37152 4.11385 4.49254 3.88066 4.61285C3.64747 4.73326 3.35788 4.86475 3.06849 5.00318C2.7791 5.14166 2.48743 5.28804 2.23449 5.44119C1.98157 5.59418 1.76177 5.73257 1.609 5.99718C1.45621 6.26183 1.44383 6.52506 1.43767 6.82067C1.43165 7.1163 1.45552 7.44156 1.4805 7.76135C1.50541 8.08116 1.53273 8.39709 1.54515 8.65919C1.55748 8.92137 1.5425 9.14337 1.52899 9.19337C1.51557 9.24346 1.41945 9.44291 1.27766 9.6637C1.13587 9.88456 0.950778 10.1427 0.769345 10.4072C0.5879 10.6718 0.40998 10.9393 0.267493 11.1984C0.12502 11.4575 0 11.6945 0 12C0 12.3056 0.124992 12.537 0.267493 12.796C0.409966 13.0552 0.587911 13.3227 0.769345 13.5872C0.950789 13.8519 1.13587 14.1148 1.27766 14.3356C1.41945 14.5564 1.51558 14.7559 1.52899 14.8059C1.54239 14.8559 1.55744 15.0731 1.54515 15.3352C1.53283 15.5974 1.50538 15.9133 1.4805 16.2331C1.4556 16.5528 1.43154 16.8781 1.43767 17.1737C1.44369 17.4694 1.45629 17.7326 1.609 17.9972C1.76176 18.2619 1.98155 18.4049 2.23449 18.5581C2.48742 18.711 2.7791 18.8529 3.06849 18.9912C3.35788 19.1298 3.64747 19.2612 3.88066 19.3816C4.11386 19.502 4.29824 19.6277 4.33484 19.6644C4.37143 19.701 4.49252 19.8862 4.61283 20.1194C4.73314 20.3526 4.87045 20.6365 5.00882 20.9259C5.14719 21.2153 5.28804 21.507 5.44117 21.7599C5.59432 22.0128 5.73821 22.2383 6.00283 22.3911C6.26744 22.5437 6.52989 22.5553 6.82551 22.5616C7.12113 22.5678 7.44152 22.5423 7.76133 22.5187C8.08113 22.4942 8.39707 22.4673 8.65917 22.4549C8.92126 22.4408 9.14335 22.4581 9.19335 22.4718C9.24335 22.4859 9.4437 22.5807 9.66449 22.7223C9.88526 22.864 10.1426 23.0492 10.4072 23.2307C10.6717 23.4121 10.9441 23.5908 11.2032 23.7333C11.4623 23.8759 11.6944 24 12 24C12.3056 24 12.5369 23.8758 12.796 23.7333C13.0551 23.5907 13.3283 23.4121 13.5928 23.2307C13.8574 23.0492 14.1147 22.8641 14.3355 22.7223C14.5563 22.5807 14.7559 22.4852 14.8058 22.4718C14.8558 22.4577 15.0787 22.4429 15.3408 22.4549C15.6029 22.469 15.9189 22.4942 16.2387 22.5187C16.5585 22.5433 16.8781 22.5678 17.1737 22.5616C17.4693 22.5553 17.7325 22.543 17.9972 22.3911C18.2618 22.2383 18.4049 22.0128 18.558 21.7599C18.7111 21.507 18.8528 21.2153 18.9912 20.9259C19.1295 20.6365 19.2669 20.3526 19.3872 20.1194C19.5075 19.8862 19.6286 19.701 19.6652 19.6644C19.7018 19.6277 19.8861 19.5017 20.1193 19.3816C20.3525 19.2611 20.6421 19.1297 20.9315 18.9912C21.2209 18.8528 21.5069 18.7112 21.7598 18.5581C22.0128 18.4048 22.2382 18.2618 22.391 17.9972C22.5438 17.7326 22.5562 17.4694 22.5623 17.1737C22.5683 16.8781 22.5445 16.5528 22.5195 16.2331C22.4946 15.9133 22.4673 15.5973 22.4548 15.3352C22.4425 15.073 22.4575 14.8559 22.471 14.8059C22.4845 14.7558 22.5806 14.5563 22.7223 14.3356C22.8641 14.1147 23.0484 13.8517 23.2298 13.5872C23.4113 13.3226 23.59 13.0551 23.7325 12.796C23.875 12.5369 24 12.3056 24 12C24 11.6945 23.875 11.4574 23.7325 11.1984C23.59 10.9392 23.4113 10.6717 23.2298 10.4072C23.0484 10.1426 22.8641 9.88447 22.7223 9.6637C22.5805 9.44285 22.4844 9.24337 22.471 9.19337C22.4576 9.14329 22.4426 8.9214 22.4548 8.65919C22.4672 8.39701 22.4946 8.08116 22.5195 7.76135C22.5444 7.44156 22.5685 7.1163 22.5623 6.82067C22.5564 6.52506 22.5437 6.26183 22.391 5.99718C22.2382 5.73254 22.0128 5.59431 21.7598 5.44119C21.5069 5.28793 21.2209 5.14154 20.9315 5.00318C20.6421 4.8647 20.3525 4.73321 20.1193 4.61285C19.8861 4.49243 19.7018 4.37141 19.6652 4.33485C19.6286 4.29817 19.5075 4.11387 19.3872 3.88067C19.2669 3.64751 19.1295 3.35707 18.9912 3.06769C18.8528 2.77831 18.7111 2.48745 18.558 2.2345C18.4049 1.98162 18.2618 1.76176 17.9972 1.609C17.7326 1.45629 17.4693 1.44369 17.1737 1.43767C16.8781 1.4322 16.5585 1.4519 16.2387 1.47566C15.9189 1.50029 15.6029 1.53285 15.3408 1.54516C15.0787 1.55892 14.8558 1.54203 14.8058 1.52819C14.7558 1.51443 14.5563 1.41376 14.3355 1.27201C14.1147 1.13024 13.8574 0.950766 13.5928 0.769346C13.3283 0.587901 13.0551 0.404308 12.796 0.261836C12.5369 0.119252 12.3056 0 12 0ZM12 0.82834C12.0038 0.82834 12.1893 0.872034 12.4008 0.988352C12.6124 1.10466 12.8644 1.2712 13.1225 1.44818C13.3806 1.62525 13.6424 1.8148 13.887 1.97185C14.1315 2.12894 14.3436 2.25832 14.5925 2.32501C14.8414 2.39179 15.0877 2.38153 15.378 2.36785C15.6683 2.35424 15.9905 2.32809 16.3025 2.30401C16.6145 2.27938 16.917 2.2611 17.1583 2.26602C17.3997 2.2715 17.5825 2.3231 17.5858 2.32501C17.5891 2.32689 17.7226 2.45555 17.8477 2.662C17.9727 2.86863 18.1135 3.14338 18.2485 3.4257C18.3835 3.70801 18.5161 4.00137 18.6493 4.25969C18.7826 4.51804 18.9003 4.73533 19.0825 4.91751C19.2647 5.09978 19.4812 5.21743 19.7395 5.35068C19.9978 5.48395 20.2912 5.61662 20.5735 5.75151C20.8558 5.88644 21.1258 6.02182 21.3323 6.14669C21.5389 6.27175 21.6731 6.41063 21.675 6.41419C21.6769 6.417 21.7282 6.60045 21.7332 6.84169C21.7382 7.08307 21.7204 7.38469 21.696 7.6967C21.6716 8.00869 21.6402 8.33168 21.6265 8.62202C21.6129 8.91233 21.6028 9.15862 21.6693 9.40753C21.736 9.65629 21.8703 9.86279 22.0273 10.1074C22.1844 10.352 22.3692 10.6195 22.5462 10.8775C22.7232 11.1356 22.8945 11.3876 23.0108 11.5992C23.1272 11.8107 23.1717 11.9962 23.1717 12C23.1717 12.0032 23.1272 12.1836 23.0108 12.3952C22.8945 12.6068 22.7232 12.8645 22.5462 13.1225C22.3692 13.3806 22.1844 13.6425 22.0273 13.887C21.8703 14.1317 21.736 14.3436 21.6693 14.5925C21.6026 14.8413 21.6128 15.0877 21.6265 15.378C21.6401 15.6684 21.6718 15.9849 21.696 16.2969C21.7204 16.6089 21.7382 16.9162 21.7332 17.1576C21.7283 17.3989 21.6769 17.5825 21.675 17.5859C21.6731 17.589 21.5389 17.7227 21.3323 17.8477C21.1258 17.9728 20.8558 18.1079 20.5735 18.2429C20.2912 18.3778 19.9978 18.516 19.7395 18.6494C19.4812 18.7826 19.2647 18.8948 19.0825 19.0769C18.9003 19.2592 18.7826 19.4812 18.6493 19.7396C18.5161 19.9979 18.3835 20.2912 18.2485 20.5736C18.1135 20.8559 17.9727 21.1259 17.8477 21.3324C17.7227 21.539 17.5892 21.6723 17.5858 21.6742C17.5825 21.6758 17.3997 21.728 17.1583 21.7332C16.917 21.7395 16.6145 21.7191 16.3025 21.696C15.9905 21.6714 15.6683 21.6401 15.378 21.6265C15.0877 21.6125 14.8414 21.602 14.5925 21.6694C14.3436 21.7362 14.1316 21.8705 13.887 22.0274C13.6424 22.1845 13.3806 22.3684 13.1225 22.5454C12.8644 22.7225 12.6124 22.8889 12.4008 23.0053C12.1893 23.1216 12.0039 23.1709 12 23.1709C11.9962 23.1709 11.8107 23.1215 11.5992 23.0053C11.3876 22.8889 11.1356 22.7224 10.8775 22.5454C10.6194 22.3683 10.3576 22.1845 10.113 22.0274C9.86845 21.8703 9.65639 21.7361 9.4075 21.6694C9.15862 21.6026 8.91232 21.6129 8.62199 21.6265C8.33166 21.6406 8.00867 21.6717 7.69668 21.696C7.38469 21.7205 7.08303 21.738 6.84167 21.7332C6.60032 21.7269 6.41752 21.6761 6.41417 21.6742C6.41088 21.6727 6.27171 21.539 6.14668 21.3324C6.02166 21.1258 5.88647 20.8559 5.7515 20.5736C5.61649 20.2912 5.48393 19.9979 5.35066 19.7396C5.21738 19.4812 5.09969 19.2591 4.9175 19.0769C4.73529 18.8946 4.51879 18.7827 4.26049 18.6494C4.00217 18.5161 3.70881 18.3779 3.42649 18.2429C3.14417 18.1079 2.87417 17.9729 2.66765 17.8477C2.46114 17.7226 2.32694 17.5892 2.325 17.5859C2.32307 17.5827 2.27102 17.3988 2.26601 17.1576C2.26108 16.9162 2.27973 16.6089 2.30399 16.2969C2.32835 15.9849 2.35975 15.6684 2.37349 15.378C2.38718 15.0877 2.39725 14.8414 2.33066 14.5925C2.26397 14.3435 2.12972 14.1316 1.97266 13.887C1.8156 13.6424 1.63084 13.3806 1.45384 13.1225C1.27682 12.8645 1.10549 12.6068 0.989158 12.3952C0.872821 12.1837 0.828339 12.0039 0.828339 12C0.828342 11.9969 0.872847 11.8107 0.989158 11.5992C1.1055 11.3876 1.27683 11.1356 1.45384 10.8775C1.63085 10.6195 1.81559 10.3519 1.97266 10.1074C2.12972 9.86272 2.26397 9.65641 2.33066 9.40753C2.39736 9.15876 2.38723 8.91233 2.37349 8.62202C2.35981 8.33168 2.32824 8.00869 2.30399 7.6967C2.27964 7.38469 2.26097 7.08304 2.26601 6.84169C2.27094 6.60031 2.32309 6.41752 2.325 6.41419C2.32694 6.41153 2.46114 6.27175 2.66765 6.14669C2.87417 6.02162 3.14417 5.88652 3.42649 5.75151C3.70881 5.61659 4.00218 5.48393 4.26049 5.35068C4.51878 5.21739 4.7353 5.09978 4.9175 4.91751C5.09971 4.73525 5.2174 4.51799 5.35066 4.25969C5.48394 4.00134 5.61651 3.70801 5.7515 3.4257C5.8865 3.14338 6.02166 2.86852 6.14668 2.662C6.27169 2.45538 6.4108 2.32693 6.41417 2.32501C6.41745 2.32313 6.60032 2.27095 6.84167 2.26602C7.08302 2.26055 7.38469 2.28025 7.69668 2.30401C8.00867 2.32864 8.33166 2.35416 8.62199 2.36785C8.91232 2.38161 9.15861 2.39233 9.4075 2.32501C9.6564 2.25824 9.86844 2.12897 10.113 1.97185C10.3576 1.81477 10.6194 1.62519 10.8775 1.44818C11.1356 1.27112 11.3876 1.10469 11.5992 0.988352C11.8107 0.872034 11.9961 0.82834 12 0.82834ZM8.68584 6.49662C8.12844 6.50975 7.57476 6.72844 7.15199 7.15121C6.27918 8.02402 6.27918 9.45276 7.15199 10.3256C8.02481 11.1984 9.45192 11.196 10.3247 10.3224C11.1975 9.44963 11.2 8.02332 10.3272 7.1505C9.87711 6.70116 9.27919 6.48255 8.68584 6.49662ZM8.73917 7.31849C9.10109 7.31849 9.46297 7.45802 9.74126 7.7363C10.2978 8.29288 10.2962 9.18148 9.73965 9.73805C9.18308 10.2946 8.29366 10.2971 7.73709 9.74118C7.18052 9.18461 7.18052 8.29358 7.73709 7.737C8.01538 7.45871 8.37725 7.31849 8.73917 7.31849ZM15.4734 8.06844C15.3805 8.0789 15.2939 8.12049 15.2277 8.18643L8.18722 15.2269C8.11038 15.3044 8.06727 15.4091 8.06727 15.5183C8.06727 15.6274 8.11038 15.7321 8.18722 15.8096C8.22567 15.8482 8.27138 15.8789 8.32172 15.8998C8.37206 15.9208 8.42605 15.9316 8.48057 15.9316C8.53509 15.9316 8.58908 15.9208 8.63942 15.8998C8.68976 15.8789 8.73547 15.8482 8.77392 15.8096L15.8112 8.76991C15.8882 8.69238 15.9315 8.5875 15.9315 8.47817C15.9315 8.36885 15.8882 8.26396 15.8112 8.18643C15.7673 8.14274 15.7141 8.10946 15.6557 8.08904C15.5972 8.06861 15.5349 8.06158 15.4734 8.06844ZM15.2608 13.0175C14.6859 13.018 14.1109 13.2373 13.6745 13.6737C12.8016 14.5465 12.7992 15.9736 13.672 16.8464C14.5448 17.7193 15.9744 17.7193 16.8472 16.8464C17.72 15.9736 17.72 14.5441 16.8472 13.6713C16.4108 13.2348 15.8358 13.0169 15.2608 13.0175ZM15.2608 13.8402C15.6222 13.8396 15.9838 13.9781 16.2621 14.2564C16.8187 14.8129 16.8187 15.704 16.2621 16.2605C15.7055 16.8171 14.8145 16.8171 14.2579 16.2605C13.7014 15.704 13.703 14.8154 14.2595 14.2588C14.5378 13.9805 14.8994 13.8407 15.2608 13.8402Z" fill="black"/>
</g>
<defs>
<clipPath id="clip0_12_35">
<rect width="24" height="24" fill="white"/>
</clipPath>
</defs>
</svg>
