<svg width="24" height="24" viewBox="0 0 24 24" fill="none" xmlns="http://www.w3.org/2000/svg">
<path d="M19.8874 1.73301L1.32582 19.7798C0.593584 20.4918 0.593584 21.646 1.32582 22.358C2.05805 23.0699 3.24524 23.0699 3.97747 22.358L22.539 4.31115C23.2713 3.59921 23.2713 2.44495 22.539 1.73301C21.8068 1.02109 20.6196 1.02109 19.8874 1.73301Z" fill="#202020"/>
<path d="M22.6062 19.5703L4.04457 1.52345C3.31234 0.81152 2.12516 0.81152 1.39293 1.52345C0.660692 2.23537 0.660692 3.38965 1.39293 4.10157L19.9545 22.1485C20.6867 22.8604 21.8739 22.8604 22.6062 22.1485C23.3383 21.4365 23.3383 20.2823 22.6062 19.5703Z" fill="#202020"/>
</svg>
