<svg width="24" height="24" viewBox="0 0 24 24" fill="none" xmlns="http://www.w3.org/2000/svg">
<g clip-path="url(#clip0_37_80)">
<path fill-rule="evenodd" clip-rule="evenodd" d="M22.0209 0.466662L23.5375 2.0002C24.1542 2.62373 24.1542 3.64159 23.5375 4.26512L22.7786 5.03245L19.022 1.23512L19.7809 0.467785C20.3975 -0.155741 21.4053 -0.155741 22.0209 0.466662ZM4.34106 0.44981C1.95331 0.44981 0 2.42487 0 4.83921V19.6106C0 22.0249 1.95331 24 4.34217 24H18.9509C21.3375 24 23.292 22.0249 23.292 19.6106V7.82652L20.7431 10.4026V19.6106C20.7431 20.6082 19.9364 21.4228 18.9509 21.4228H4.34106C3.35441 21.4228 2.54775 20.6071 2.54775 19.6106V4.83921C2.54775 3.84157 3.35441 3.02593 4.34106 3.02593H13.9732L16.5209 0.44981H4.34106ZM8.69323 15.4762L9.30767 13.2495L9.921 11.0217L11.5099 12.6294L13.0987 14.2359L10.8965 14.8572L8.69323 15.4762ZM21.9842 5.8346L18.2276 2.03727L10.4265 9.92516L14.1821 13.7225L21.9842 5.8346Z" fill="black"/>
</g>
<defs>
<clipPath id="clip0_37_80">
<rect width="24" height="24" fill="white"/>
</clipPath>
</defs>
</svg>
