<svg width="24" height="24" viewBox="0 0 24 24" fill="none" xmlns="http://www.w3.org/2000/svg">
<g clip-path="url(#clip0_34_64)">
<path d="M12 0C5.40772 0 0 5.40773 0 12C0 18.5923 5.40772 24 12 24C18.5923 24 24 18.5923 24 12C24 5.40773 18.5923 0 12 0ZM12 23.485C5.66524 23.485 0.515021 18.3348 0.515021 12C0.515021 5.66524 5.66524 0.515022 12 0.515022C18.3348 0.515022 23.485 5.66524 23.485 12C23.485 18.3348 18.3348 23.485 12 23.485Z" stroke="black" stroke-miterlimit="10"/>
<path d="M11.8455 18.3348C9.52789 18.2318 7.72532 16.3262 7.82832 14.0086H7.3133C7.2103 16.5837 9.27038 18.7983 11.8455 18.8498C11.897 18.8498 11.9485 18.8498 12 18.8498C14.5236 18.8498 16.5837 16.8412 16.6867 14.3176H16.1717C16.1202 16.6352 14.1631 18.4378 11.8455 18.3348Z" stroke="black" stroke-miterlimit="10"/>
<path d="M9.5794 9.37339H10.0944C10.0944 8.08584 9.06438 7.05579 7.77683 7.05579C7.1588 7.05579 6.59228 7.3133 6.12876 7.72532C5.71674 8.18884 5.45923 8.75536 5.45923 9.37339H5.97425C5.97425 8.90987 6.18026 8.44635 6.48927 8.08584C6.84979 7.72532 7.2618 7.57082 7.77683 7.57082C8.70386 7.62232 9.5279 8.39485 9.5794 9.37339Z" stroke="black" stroke-miterlimit="10"/>
<path d="M15.5021 7.1073C14.8841 7.1073 14.3176 7.36481 13.8541 7.77682C13.4421 8.24034 13.1845 8.80687 13.1845 9.42489H13.6996C13.6996 8.96137 13.9056 8.49785 14.2146 8.13734C14.5751 7.77682 14.9871 7.62232 15.5021 7.62232C16.4807 7.62232 17.3047 8.39485 17.3047 9.42489H17.8197C17.8197 8.13734 16.7897 7.1073 15.5021 7.1073Z" stroke="black" stroke-miterlimit="10"/>
</g>
<defs>
<clipPath id="clip0_34_64">
<rect width="24" height="24" fill="white"/>
</clipPath>
</defs>
</svg>
