<svg width="24" height="24" viewBox="0 0 24 24" fill="none" xmlns="http://www.w3.org/2000/svg">
<path d="M22.8588 6.5H1.16925C0.526162 6.5 0 5.9375 0 5.25C0 4.5625 0.526162 4 1.16925 4H22.8296C23.4727 4 23.9988 4.5625 23.9988 5.25C24.0281 5.9375 23.5019 6.5 22.8588 6.5ZM20.7834 14C20.7834 13.3125 20.2572 12.75 19.6142 12.75H4.41392C3.77083 12.75 3.24467 13.3125 3.24467 14C3.24467 14.6875 3.77083 15.25 4.41392 15.25H19.6142C20.2572 15.25 20.7834 14.6875 20.7834 14ZM16.3987 22.75C16.3987 22.0625 15.8726 21.5 15.2295 21.5H8.7986C8.15551 21.5 7.62935 22.0625 7.62935 22.75C7.62935 23.4375 8.15551 24 8.7986 24H15.2295C15.8726 24 16.3987 23.4375 16.3987 22.75Z" fill="black"/>
</svg>
