<svg width="24" height="24" viewBox="0 0 24 24" fill="none" xmlns="http://www.w3.org/2000/svg">
<path fill-rule="evenodd" clip-rule="evenodd" d="M0.560066 2.61778L11.5454 12L0.560066 21.3822C-0.177502 21.985 -0.191055 22.9508 0.545992 23.5535C1.28304 24.1563 2.46471 24.145 3.20176 23.5423L15.4261 13.1012C15.435 13.0942 15.4459 13.0896 15.4548 13.0821C15.8087 12.793 15.9844 12.42 15.9953 12.0436C15.9958 12.0287 16 12.0141 16 11.9996C16 11.985 15.9958 11.9701 15.9953 11.9556C15.9844 11.5792 15.8082 11.2062 15.4548 10.9171C15.4459 10.91 15.4355 10.905 15.4261 10.8979L3.20228 0.457706C2.46523 -0.145039 1.28356 -0.156255 0.546513 0.44649C-0.191055 1.04923 -0.176981 2.01504 0.560066 2.61778Z" fill="black"/>
</svg>
