<svg width="24" height="24" viewBox="0 0 24 24" fill="none" xmlns="http://www.w3.org/2000/svg">
<g clip-path="url(#clip0_1932_36)">
<path d="M2.90349 24H5.11529C5.44907 24 5.71851 23.7401 5.71851 23.4182C5.71851 23.0962 5.44907 22.8363 5.11529 22.8363H2.90349C1.9665 22.8363 1.20242 22.0993 1.20242 21.1955V10.6564C1.20242 9.96986 1.50805 9.31432 2.0429 8.86048L10.4075 1.74262C11.3123 0.970706 12.6796 0.970706 13.5885 1.74262L21.9531 8.86048C22.4879 9.31432 22.7936 9.96986 22.7936 10.6564V21.1955C22.7936 22.0993 22.0295 22.8363 21.0925 22.8363H18.2614C17.9276 22.8363 17.6582 23.0962 17.6582 23.4182C17.6582 23.7401 17.9276 24 18.2614 24H21.0925C22.697 24 24 22.7432 24 21.1955V10.6564C24 9.63627 23.5456 8.66265 22.7534 7.98772L14.3887 0.869853C13.0295 -0.289951 10.9745 -0.289951 9.61126 0.869853L1.24666 7.98772C0.454432 8.66265 9.28393e-06 9.63627 9.28393e-06 10.6564V21.1955C-0.00401216 22.7432 1.29894 24 2.90349 24Z" fill="black"/>
<path d="M15.7441 23.6936C16.0779 23.6936 16.3473 23.4337 16.3473 23.1117V17.3864C16.3473 14.9776 14.3165 13.0148 11.8151 13.0148C9.31379 13.0148 7.28296 14.9737 7.28296 17.3864V23.1156C7.28296 23.4376 7.5524 23.6974 7.88618 23.6974C8.21996 23.6974 8.48939 23.4376 8.48939 23.1156V17.3864C8.48939 15.6176 9.98135 14.1785 11.8151 14.1785C13.6489 14.1785 15.1409 15.6176 15.1409 17.3864V23.1156C15.1409 23.4337 15.4103 23.6936 15.7441 23.6936Z" fill="black"/>
</g>
<defs>
<clipPath id="clip0_1932_36">
<rect width="24" height="24" fill="white"/>
</clipPath>
</defs>
</svg>
