<svg width="24" height="24" viewBox="0 0 24 24" fill="none" xmlns="http://www.w3.org/2000/svg">
<path d="M0.686181 3.00105C0.497171 3.02103 0.322272 3.11118 0.195465 3.25397C0.0686571 3.39677 -0.00100541 3.58202 1.09667e-05 3.77373V19.2273C3.12775e-05 19.4322 0.0807366 19.6288 0.224377 19.7737C0.368017 19.9186 0.56283 20 0.765968 20H23.234C23.4372 20 23.632 19.9186 23.7756 19.7737C23.9193 19.6288 24 19.4322 24 19.2273V3.77373C24 3.56881 23.9193 3.37228 23.7756 3.22738C23.632 3.08248 23.4372 3.00107 23.234 3.00105H0.765968C0.73939 2.99965 0.712759 2.99965 0.686181 3.00105ZM2.87235 4.54641H21.1277L12 12.0398L2.87235 4.54641ZM1.53193 5.44787L11.5133 13.6415C11.6504 13.7553 11.8225 13.8175 12 13.8175C12.1776 13.8175 12.3496 13.7553 12.4867 13.6415L22.4681 5.44787V18.4546H1.53193V5.44787Z" fill="black"/>
</svg>
