<svg width="24" height="24" viewBox="0 0 24 24" fill="none" xmlns="http://www.w3.org/2000/svg">
<g clip-path="url(#clip0_31_37)">
<path d="M8.50909 0.818886C5.34545 2.43215 3.63636 5.73551 3.63636 10.3448C3.63636 13.1489 2.50909 17.0284 1.12727 18.9489C0.509091 19.794 0 20.6006 0 20.7543C0 20.9463 2 21.0615 4.47273 21.0615H8.90909L9.52727 22.2139C10.8364 24.5954 13.1636 24.5954 14.4727 22.2139L15.0909 21.0615H19.5636C22 21.0615 24 20.9463 24 20.8311C24 20.7158 23.4909 19.986 22.8727 19.1794C21.4182 17.2588 20.4727 13.9555 20.1818 9.65344C19.9636 6.81102 19.7091 5.77392 18.8727 4.19906C16.8 0.396363 12.2545 -1.06326 8.50909 0.818886ZM15.0909 2.2401C17.6364 3.54608 18.9091 6.08121 18.9091 9.88391C18.9091 12.8032 19.8182 16.4522 21.3818 19.6019C21.4545 19.794 17.1636 19.9092 11.8909 19.9092H2.21818L3.09091 18.2575C4.25455 16.0681 4.72727 13.9939 5.05455 9.73027C5.30909 6.77261 5.52727 5.81233 6.29091 4.58318C8.14545 1.62552 11.9273 0.62683 15.0909 2.2401ZM13.4545 21.3688C13.4545 21.9066 12.6182 22.598 11.9636 22.598C11.2727 22.598 10.4364 21.6761 10.8 21.3304C11.1273 20.9463 13.4545 20.9847 13.4545 21.3688Z" fill="black"/>
</g>
<defs>
<clipPath id="clip0_31_37">
<rect width="24" height="24" fill="white"/>
</clipPath>
</defs>
</svg>
