<svg width="24" height="24" viewBox="0 0 24 24" fill="none" xmlns="http://www.w3.org/2000/svg">
<g clip-path="url(#clip0_32_41)">
<path d="M11.7568 20.8158L6.53361 23.6862C5.00398 24.5269 3.78448 23.6018 4.07677 21.8204L5.07432 15.7407C5.09669 15.6044 5.01823 15.3532 4.92403 15.2572L0.698372 10.9516C-0.539127 9.69067 -0.0743052 8.19244 1.6368 7.93253L7.47651 7.04552C7.60748 7.02563 7.81175 6.87001 7.86997 6.7467L10.4816 1.21526C11.2464 -0.404648 12.7532 -0.405523 13.5184 1.21526L16.13 6.7467C16.1886 6.87076 16.3933 7.02575 16.5234 7.04552L22.3632 7.93253C24.0733 8.1923 24.5398 9.68998 23.3016 10.9516L19.0759 15.2572C18.9812 15.3538 18.9034 15.6052 18.9256 15.7407L19.9232 21.8204C20.2153 23.6008 18.9968 24.5273 17.4663 23.6862L12.2432 20.8158C12.126 20.7514 11.8732 20.7518 11.7568 20.8158ZM11.2266 19.7616C11.6744 19.5155 12.3237 19.5145 12.7734 19.7616L17.9965 22.632C18.6908 23.0136 18.9328 22.8296 18.8002 22.0217L17.8027 15.9421C17.7171 15.4208 17.9169 14.775 18.2806 14.4044L22.5063 10.0987C23.068 9.52643 22.9753 9.22903 22.1993 9.11116L16.3596 8.22415C15.8589 8.1481 15.3331 7.74996 15.1083 7.2738L12.4967 1.74235C12.1495 1.00713 11.8503 1.00731 11.5033 1.74235L8.89169 7.2738C8.66779 7.74805 8.14304 8.1478 7.64035 8.22415L1.80064 9.11116C1.02445 9.22906 0.932144 9.52657 1.49367 10.0987L5.71933 14.4044C6.08162 14.7735 6.28316 15.4187 6.19729 15.9421L5.19975 22.0217C5.06716 22.8298 5.30933 23.0135 6.00341 22.632L11.2266 19.7616Z" fill="black"/>
</g>
<defs>
<clipPath id="clip0_32_41">
<rect width="24" height="24" fill="white"/>
</clipPath>
</defs>
</svg>
