<svg width="24" height="24" viewBox="0 0 24 24" fill="none" xmlns="http://www.w3.org/2000/svg">
<g clip-path="url(#clip0_12_32)">
<path d="M23.808 22.8809L16.719 15.7914C19.9832 12.0458 19.83 6.33952 16.2608 2.78125C14.4621 0.987681 12.0719 0 9.53166 0C6.97963 0 4.58209 0.995289 2.78027 2.80223C0.982902 4.60498 -0.00470477 7.00034 1.6852e-05 9.54759C0.00473848 12.0948 1.00074 14.487 2.80414 16.2832C4.60176 18.0776 6.99091 19.0658 9.5314 19.0658C11.8586 19.0658 14.056 18.2355 15.7918 16.719L22.8802 23.808C23.0082 23.936 23.1761 24 23.344 24C23.5119 24 23.6795 23.936 23.8078 23.808C24.064 23.5519 24.064 23.1369 23.808 22.8809ZM3.7301 15.3543C2.17459 13.8052 1.31578 11.742 1.31158 9.54522C1.30764 7.34872 2.15885 5.28285 3.70911 3.72827C5.26305 2.17001 7.33086 1.3114 9.53166 1.3114C11.7228 1.3114 13.7835 2.16319 15.3351 3.71017C18.5445 6.90983 18.5536 12.125 15.3553 15.3357C13.8011 16.895 11.7327 17.7541 9.53166 17.7541C7.34083 17.7544 5.28089 16.9023 3.7301 15.3543Z" fill="black"/>
</g>
<defs>
<clipPath id="clip0_12_32">
<rect width="24" height="24" fill="white"/>
</clipPath>
</defs>
</svg>
