<svg width="24" height="24" viewBox="0 0 24 24" fill="none" xmlns="http://www.w3.org/2000/svg">
<g clip-path="url(#clip0_27_19)">
<path d="M1.77164 19.3093L0.0144915 3.80729C-0.0621421 3.12503 0.167265 2.44346 0.652479 1.91184C1.13769 1.38022 1.83917 1.04187 2.60331 0.970868L13.2221 0.0131639C13.9873 -0.055954 14.752 0.14902 15.348 0.583011C15.944 1.017 16.3224 1.64448 16.4001 2.32746L16.4623 2.87405L21.407 3.34443C22.1712 3.41767 22.8716 3.75838 23.3547 4.29186C23.8379 4.82534 24.0642 5.50804 23.9842 6.19026L22.1417 21.6838C22.066 22.3195 21.7296 22.9077 21.1971 23.3353C20.6647 23.7629 19.974 23.9996 19.2577 24C19.1521 24.0002 19.0465 23.9952 18.9415 23.9849L8.33327 22.9802C7.84129 22.9349 7.37067 22.7772 6.96674 22.5225C6.5628 22.2678 6.23915 21.9245 6.02695 21.5258L4.94019 21.6245C4.84006 21.633 4.74097 21.6377 4.64189 21.6377C3.92406 21.6367 3.23216 21.3981 2.70017 20.9679C2.16818 20.5378 1.83393 19.9468 1.76215 19.3093H1.77164ZM7.05678 21.553C7.22518 21.74 7.43347 21.8954 7.66959 22.01C7.90571 22.1247 8.16497 22.1964 8.43235 22.221L19.0416 23.2267C19.5811 23.2775 20.1212 23.1352 20.5431 22.8309C20.9651 22.5266 21.2345 22.0853 21.2921 21.6038L23.1346 6.11406C23.1634 5.8753 23.1392 5.63381 23.0635 5.4034C22.9877 5.17298 22.8617 4.95815 22.6929 4.77119C22.524 4.58422 22.3155 4.42879 22.0793 4.31376C21.8431 4.19874 21.5839 4.12637 21.3163 4.10081L10.7081 3.09607C10.635 3.08889 10.5614 3.08544 10.4878 3.08572C9.98323 3.08666 9.49683 3.25389 9.12194 3.55531C8.74706 3.85673 8.51012 4.2711 8.4566 4.7189L6.6088 20.2124C6.58043 20.4512 6.60542 20.6927 6.68232 20.9228C6.75922 21.1529 6.88649 21.3671 7.05678 21.553ZM3.36751 20.4636C3.57534 20.6158 3.81492 20.7297 4.07239 20.7986C4.32986 20.8676 4.6001 20.8902 4.86746 20.8653L5.78557 20.7826C5.74818 20.5672 5.74145 20.3484 5.76554 20.1315L7.60701 4.63799C7.68826 3.95523 8.07005 3.32923 8.66841 2.89769C9.26678 2.46615 10.0327 2.26442 10.7977 2.33687L15.5938 2.79126L15.5495 2.4046C15.4949 1.92282 15.2282 1.48011 14.8079 1.17384C14.3877 0.867567 13.8483 0.722817 13.3085 0.771425L2.69396 1.73007C2.15429 1.77948 1.65859 2.01788 1.31557 2.39298C0.97254 2.76809 0.810177 3.2493 0.864078 3.73109L2.62122 19.2331C2.64806 19.4717 2.72742 19.7032 2.85477 19.9144C2.98211 20.1256 3.15493 20.3122 3.3633 20.4636H3.36751Z" fill="black"/>
</g>
<defs>
<clipPath id="clip0_27_19">
<rect width="24" height="24" fill="white"/>
</clipPath>
</defs>
</svg>
