<svg width="24" height="24" viewBox="0 0 24 24" fill="none" xmlns="http://www.w3.org/2000/svg">
<g clip-path="url(#clip0_33_47)">
<path d="M24.0218 17.4574L24.1544 7.15761C24.1675 6.14524 23.4734 5.29986 22.5925 5.28852L1.76598 5.02041C0.884998 5.00907 0.169445 5.83631 0.156412 6.84868L0.0238208 17.1485C0.0107883 18.1609 0.70481 19.0063 1.58579 19.0176L22.4123 19.2857C23.2927 19.3411 24.0082 18.5138 24.0218 17.4574ZM1.61129 17.0369L1.73992 7.04516L22.5664 7.31326L22.4378 17.305L20.852 17.2845L20.8775 15.3038C20.8849 14.7316 20.5381 14.2869 20.08 14.281C19.6219 14.2751 19.2638 14.7107 19.2565 15.2829L19.231 17.2637L17.6452 17.2433L17.7223 11.2571C17.7296 10.6848 17.3829 10.2401 16.9248 10.2342C16.4667 10.2283 16.1086 10.664 16.1013 11.2362L16.0242 17.2224L14.4384 17.202L14.4639 15.2213C14.4713 14.649 14.1246 14.2043 13.6664 14.1984C13.2083 14.1925 12.8503 14.6282 12.8429 15.2004L12.8174 17.1811L11.2316 17.1607L11.3087 11.1745C11.3161 10.6023 10.9693 10.1576 10.5112 10.1517C10.0531 10.1458 9.69506 10.5814 9.68769 11.1536L9.61063 17.1398L8.02486 17.1194L8.05036 15.1387C8.05772 14.5665 7.71099 14.1218 7.25288 14.1159C6.79477 14.11 6.43671 14.5456 6.42934 15.1178L6.40385 17.0986L4.81807 17.0781L4.89514 11.0919C4.9025 10.5197 4.55577 10.075 4.09766 10.0691C3.63955 10.0632 3.28149 10.4988 3.27413 11.0711L3.19706 17.0573L1.61129 17.0369Z" fill="black"/>
</g>
<defs>
<clipPath id="clip0_33_47">
<rect width="24" height="24" fill="white"/>
</clipPath>
</defs>
</svg>
