<svg width="24" height="24" viewBox="0 0 24 24" fill="none" xmlns="http://www.w3.org/2000/svg">
<g clip-path="url(#clip0_29_25)">
<path fill-rule="evenodd" clip-rule="evenodd" d="M17.2718 19.5402L13.7363 14.32C13.5687 14.1285 13.3597 14.0332 13.1482 14.0518C12.9366 14.0704 12.7368 14.2016 12.5857 14.4211C12.4346 14.6406 12.3426 14.9335 12.3266 15.2455C12.3107 15.5576 12.3719 15.8676 12.4989 16.1181L17.5232 23.5306C17.6042 23.6511 17.7006 23.7467 17.8068 23.812C17.913 23.8772 18.0269 23.9108 18.1419 23.9108C18.2569 23.9108 18.3708 23.8772 18.4769 23.812C18.5831 23.7467 18.6795 23.6511 18.7606 23.5306L23.7849 16.1181C23.93 15.8718 24.0067 15.5536 23.9995 15.2273C23.9924 14.901 23.902 14.5908 23.7464 14.3589C23.5908 14.1269 23.3815 13.9904 23.1606 13.9768C22.9397 13.9631 22.7235 14.0733 22.5553 14.2852L19.0198 19.5054V1.37999C19.0279 1.20324 19.0112 1.02594 18.9709 0.859079C18.9307 0.692219 18.8676 0.539357 18.7856 0.409971C18.7037 0.280585 18.6046 0.177433 18.4945 0.106911C18.3845 0.0363891 18.2658 0 18.1458 0C18.0258 0 17.9071 0.0363891 17.7971 0.106911C17.687 0.177433 17.5879 0.280585 17.506 0.409971C17.424 0.539357 17.361 0.692219 17.3207 0.859079C17.2804 1.02594 17.2637 1.20324 17.2718 1.37999V19.5402ZM5.23941 0.469371L0.215132 7.88192C0.0700019 8.1282 -0.00668686 8.4464 0.00045235 8.77269C0.00758965 9.09898 0.0980285 9.40921 0.253624 9.64114C0.409218 9.87308 0.618458 10.0096 0.839367 10.0232C1.06027 10.0369 1.27651 9.92668 1.44469 9.71476L4.98014 4.49465V22.62C4.97211 22.7968 4.98876 22.9741 5.02905 23.1409C5.06934 23.3078 5.13242 23.4606 5.21437 23.59C5.29632 23.7194 5.39539 23.8226 5.50545 23.8931C5.61551 23.9636 5.73421 24 5.85419 24C5.97417 24 6.09287 23.9636 6.20293 23.8931C6.31299 23.8226 6.41206 23.7194 6.49401 23.59C6.57596 23.4606 6.63904 23.3078 6.67933 23.1409C6.71962 22.9741 6.73626 22.7968 6.72823 22.62V4.48885L10.2637 9.70895C10.4303 9.93221 10.6487 10.0523 10.8736 10.0442C11.0985 10.0362 11.3128 9.90066 11.4718 9.66576C11.6309 9.43086 11.7227 9.11458 11.7282 8.78248C11.7336 8.45038 11.6523 8.12791 11.5011 7.88192L6.47682 0.469371C6.39577 0.348894 6.29937 0.253279 6.19319 0.188032C6.08701 0.122785 5.97313 0.0891942 5.85812 0.0891942C5.74311 0.0891942 5.62923 0.122785 5.52304 0.188032C5.41686 0.253279 5.32047 0.348894 5.23941 0.469371Z" fill="black"/>
</g>
<rect x="0.5" y="0.5" width="23" height="23" stroke="black"/>
<defs>
<clipPath id="clip0_29_25">
<rect width="24" height="24" fill="white"/>
</clipPath>
</defs>
</svg>
