<svg width="24" height="24" viewBox="0 0 24 24" fill="none" xmlns="http://www.w3.org/2000/svg">
<g clip-path="url(#clip0_10_10)">
<path d="M11.9988 24C11.6618 24.0016 11.328 23.9246 11.0172 23.7734C10.7065 23.6222 10.4253 23.4 10.1905 23.1199L1.82357 13.2127C1.05242 12.2496 0.500264 11.0794 0.216871 9.8075C-0.0665314 8.53562 -0.0722603 7.20205 0.200182 5.92696C0.453564 4.69014 0.96327 3.54344 1.68523 2.58611C2.40718 1.62877 3.31964 0.889602 4.34365 0.432565C7.31955 -0.855055 10.3234 0.966377 11.9938 3.54394C13.6472 0.955955 16.6481 -0.873583 19.655 0.432565C20.6789 0.889792 21.5915 1.629 22.3136 2.58629C23.0356 3.54359 23.5456 4.69018 23.7994 5.92696C24.0716 7.19828 24.0667 8.528 23.7854 9.79665C23.5042 11.0653 22.9553 12.2331 22.188 13.1953L13.8081 23.1199C13.5732 23.4 13.2918 23.6223 12.9809 23.7735C12.67 23.9247 12.3359 24.0018 11.9988 24ZM6.36289 1.46659C5.82481 1.46598 5.29106 1.57818 4.78747 1.79777C3.95657 2.16923 3.21642 2.76979 2.63115 3.54743C2.04587 4.32506 1.63314 5.2563 1.42873 6.26044C1.2051 7.3001 1.20776 8.38782 1.43649 9.426C1.66523 10.4642 2.11285 11.4203 2.73923 12.2088L11.0922 22.0987C11.3348 22.3724 11.6601 22.5255 11.9988 22.5255C12.3375 22.5255 12.6628 22.3724 12.9055 22.0987L21.2714 12.1914C21.8938 11.4039 22.3382 10.4501 22.565 9.4152C22.7917 8.38029 22.7938 7.29647 22.5709 6.26044C22.3658 5.2565 21.9526 4.32556 21.3672 3.54802C20.7819 2.77048 20.0418 2.16976 19.2111 1.79777C16.4982 0.624783 13.7561 2.6917 12.5526 5.23682C12.4982 5.35099 12.4184 5.44628 12.3216 5.51284C12.2248 5.5794 12.1144 5.61482 12.0019 5.61547C11.8897 5.61516 11.7795 5.58038 11.6828 5.51467C11.586 5.44897 11.506 5.35469 11.451 5.24146C10.9518 4.16099 10.222 3.24671 9.33108 2.58587C8.44018 1.92503 7.41892 1.53969 6.36289 1.46659Z" fill="#202020"/>
</g>
<defs>
<clipPath id="clip0_10_10">
<rect width="24" height="24" fill="white"/>
</clipPath>
</defs>
</svg>
